<svg version="1.2" xmlns="http://www.w3.org/2000/svg" viewBox="0 0 193 193" width="48" height="48">
	<title>ajax-1 (2)-svg</title>
	<style>
		.s0 { fill: #ffffff } 
		.s1 { fill: #236bb3 } 
		.s2 { fill: none;stroke: #236bb3;stroke-width: .6 } 
	</style>
	<path id="Layer" fill-rule="evenodd" class="s0" d="m0 0h192.8v192.8h-192.8z"/>
	<path id="Layer" fill-rule="evenodd" class="s1" d="m78.8 80.8h8.4l11.8 32h-8.6l-1.9-5.8h-11l-2 5.8h-8.5zm0.6 20h7.1l-3.5-11.2h-0.1zm25.5 3.4c0 0 1 2.4 3 2.4 1.9 0 3-1.5 3-4.5v-21.3h8.2v21.8c0 7.1-3.6 10.7-11.1 10.8-4.6 0-7.2-3-7.8-4.4zm25.8-23.5h8.4l11.8 31.9h-8.6l-1.9-5.7h-11l-2 5.7h-8.5zm0.6 20h7.1l-3.5-11.1h-0.1zm32.5-4.9l-10.3-15.1h9.7l5.3 9.9 5.6-9.9h9.4l-10.2 15.1 11.1 16.8h-10l-5.9-10.7-6.4 10.7h-9.5z"/>
	<path id="Layer" class="s2" d="m22.9 121l-14.4-24.5 14-24.7h29l14 24.7-14.5 24.5z"/>
	<path id="Layer" fill-rule="evenodd" class="s1" d="m39.4 105l-7.7 5.1h-9.5l17.2-29.5 17 29.5h-9.5z"/>
</svg>