<svg version="1.2" xmlns="http://www.w3.org/2000/svg" viewBox="0 0 50 50" width="48" height="48">
	<title>jquery-svg</title>
	<style>
		.s0 { fill: #78cff5 } 
	</style>
	<path id="Layer" class="s0" d="m30.7 3.3c0.3 0.4 0.4 0.9 0.1 1.2-1.7 2.9-0.5 7.8 2.5 10.2q0.8 0.6 1.7 1 0.5 0.2 1 0.4c0.2 0.1 0.5 0.2 0.7 0.3 3.5 0.8 6 0.2 7.5-2 0.3-0.4 0.9-0.6 1.4-0.2 0.4 0.3 0.5 0.9 0.2 1.3q0 0.1 0 0.1 0 0.1-0.1 0.2c-0.8 1.3-2.9 5.2-8.4 5.2q-0.1 0-0.3 0-1.1 0-2.3-0.3-0.3 0-0.5-0.1h-0.1c0-0.1-0.2-0.1-0.2-0.1-0.2-0.1-0.3-0.1-0.4-0.1-3-1.2-5.5-3.6-6.7-6.5q-0.8-1.9-0.8-3.9c0-1.8 0.5-3.5 1.5-4.9q0 0 0-0.1c0.2-0.2 1.2-1.5 2.1-1.9q0.1-0.1 0.3-0.1c0.3 0 0.6 0.1 0.8 0.3zm-9.1 1.9c0.4 0.4 0.5 0.9 0.3 1.3-1.9 3.2-2.5 6.8-1.7 9.5 0.9 2.9 2.8 5.7 5.4 7.7l0.1 0.1q0.4 0.3 0.8 0.6 0.1 0.1 0.3 0.2c0 0 0.1 0.1 0.1 0.1h0.1q0.2 0.2 0.4 0.3l0.1 0.1h0.1c0.2 0.1 0.3 0.2 0.4 0.3l0.6 0.3q0.3 0.1 0.7 0.3h0.1q0.3 0.2 0.5 0.2l0.3 0.1q0.3 0.2 0.5 0.2 0.1 0.1 0.2 0.1c0.3 0.1 0.5 0.2 0.8 0.2 5.4 1.5 10.7-0.3 13.5-4.4 0.2-0.4 0.8-0.5 1.2-0.3 0.5 0.2 0.7 0.7 0.6 1.2-0.1 0.1-2.9 9.5-14 9.7q-0.2 0-0.4 0-1.9 0-4-0.3-0.4-0.1-0.7-0.3l-0.5-0.1q-0.2-0.1-0.5-0.2c0 0-0.1 0-0.1 0l-0.2-0.1q-0.3-0.1-0.6-0.3l-0.3-0.1q-0.4-0.1-0.7-0.3c0 0 0 0-0.1 0l-0.3-0.2c-0.1-0.1-0.2-0.1-0.2-0.1-0.1-0.1-0.3-0.2-0.5-0.3-0.3-0.2-0.5-0.3-0.7-0.4l-0.1-0.1-0.1-0.1q-0.1-0.1-0.3-0.1 0-0.1 0-0.1-0.5-0.3-0.8-0.6l-0.1-0.1c-0.4-0.2-0.6-0.4-0.9-0.7q0 0 0 0-0.3-0.3-0.7-0.6v-0.1l-0.1-0.1q-0.3-0.3-0.6-0.6c-0.6-0.5-1-1.2-1.4-1.7l-0.1-0.2q-0.7-1-1.3-2.2c-2.4-4.8-2.2-10.4 0.5-14.4q0 0 0 0c0.1-0.1 1.7-2.1 3.2-3.4q0.3-0.2 0.6-0.2 0.4 0 0.6 0.2zm-10.9 3.1c0.4 0.3 0.4 0.9 0.1 1.3-3 4.1-2 15.3 1.9 20.6q0.2 0.3 0.4 0.6 0.1 0.1 0.2 0.3l0.4 0.5c0.2 0.2 0.4 0.4 0.6 0.6q0.3 0.4 0.5 0.6l0.7 0.7q0.4 0.3 0.7 0.6 0 0 0.1 0.1 0.2 0.2 0.5 0.4l0.2 0.2q0.2 0.1 0.4 0.3 0.2 0.1 0.3 0.2 0.2 0.2 0.5 0.4h0.1c0.2 0.2 0.4 0.3 0.5 0.4q0.2 0.1 0.2 0.2 0.4 0.2 0.8 0.4 0.1 0.1 0.2 0.2l0.9 0.4q0.2 0.2 0.4 0.3c0 0 0.2 0.1 0.2 0.1q0.3 0.1 0.6 0.3h0.2q0.3 0.2 0.7 0.3l0.2 0.1q0.3 0.1 0.6 0.2c0 0 0.1 0.1 0.1 0.1q0.4 0.1 0.8 0.2l0.4 0.1q0.3 0.1 0.6 0.2c7.9 1.8 14.8 0 18.5-4.8 0.3-0.4 0.9-0.5 1.3-0.3 0.4 0.3 0.6 0.8 0.4 1.3 0 0.1-4.6 11.6-18.9 11.6q-2.6 0-5.4-0.5-0.4-0.1-0.7-0.2l-0.2-0.1q-0.1 0-0.2 0c-0.3-0.1-0.6-0.2-0.9-0.3 0 0-0.1-0.1-0.1-0.1q-0.3-0.1-0.7-0.2 0 0-0.1-0.1c-0.4-0.1-0.6-0.2-0.9-0.3 0 0-0.1-0.1-0.1-0.1q-0.4-0.2-0.7-0.3c-0.1 0-0.2-0.1-0.2-0.1-0.3-0.1-0.4-0.2-0.6-0.3q-0.1-0.1-0.3-0.2-0.3-0.1-0.6-0.3l-0.1-0.1c-0.4-0.2-0.6-0.4-0.9-0.5l-0.7-0.5q0 0-0.1-0.1-0.1 0-0.2-0.1-0.3-0.2-0.5-0.4l-0.9-0.7q-0.3-0.3-0.6-0.5c0 0-0.2-0.1-0.2-0.1-0.1-0.2-0.3-0.3-0.5-0.5l-0.2-0.2c0 0 0 0 0 0q-0.3-0.3-0.5-0.5l-0.2-0.2q-0.2-0.3-0.5-0.6 0 0-0.1 0-0.3-0.3-0.5-0.7l-0.1-0.1c0 0-0.1 0-0.1 0l-0.5-0.8q-0.2-0.2-0.5-0.5v-0.1q0 0 0 0-0.3-0.4-0.5-0.8-0.1 0-0.2-0.1l-0.1-0.3q-0.1-0.1-0.2-0.3 0-0.1-0.1-0.2l-0.3-0.5c-0.1-0.2-0.2-0.3-0.2-0.4 0 0-0.1-0.1-0.1-0.1 0-0.1-0.1-0.2-0.1-0.3l-0.1-0.1q-0.1-0.1-0.2-0.3c-2.8-5.7-3.6-14.9 0.5-20.9 0.2-0.2 1.6-2.4 3.5-4.1q0.3-0.3 0.7-0.3 0.4 0 0.7 0.3z"/>
</svg>