<svg version="1.2" xmlns="http://www.w3.org/2000/svg" viewBox="0 0 800 800" width="48" height="48">
	<title>photopea-svg</title>
	<style>
		.s0 { fill: #18a497 } 
	</style>
	<path id="Layer" class="s0" d="m130.3 0.3h539.6c71.9 0 130 58.1 130 130v539.5c0 71.8-58.1 129.9-130 129.9h-456.6l-1.6-344.4h-0.2v-2.4c0-130.6 103.7-236.2 232-236.2 77 0 139.2 63.4 139.2 141.7 0 78.3-62.2 141.7-139.2 141.7-25.7 0-46.4-21.2-46.4-47.2 0-26.2 20.7-47.3 46.4-47.3 25.7 0 46.4-21.2 46.4-47.2 0-26.2-20.7-47.2-46.4-47.2-77 0-139.2 63.3-139.2 141.6 0 78.4 62.2 141.7 139.2 141.7 128.3 0 232-105.6 232-236.1 0-130.6-103.7-236.2-232-236.2-179.6 0-324.8 147.8-324.8 330.6v2.9h-0.8l1.5 343.5c-66.7-5.4-119.1-61.2-119.1-129.5v-539.5c0-71.8 58.1-129.9 130-129.9z"/>
</svg>