<svg viewBox="0 0 299 302" fill="none" preserveAspectRatio="none" xmlns="http://www.w3.org/2000/svg">
<path d="M15 19C15 19 35.5332 -19 150 17C247.034 47.5174 275.13 27.7325 281.437 20.9984C282.381 19.5951 283 19 283 19C283 19 282.57 19.7886 281.437 20.9984C276.263 28.6902 261.32 60.6631 285 152C313 260 283 286 283 286C283 286 267 317.164 150 287C36.8894 257.839 16.3061 284.127 15.0627 285.907C15.0215 285.969 15 286 15 286C15 286 15.0199 285.968 15.0627 285.907C16.5352 283.678 43.2109 241.497 15 152C-14 60 15 19 15 19Z" fill="#CBFF4E"/>
<path d="M15 19C15 19 35.5332 -19 150 17C264.467 53 283 19 283 19C283 19 257 44 285 152C313 260 283 286 283 286C283 286 267 317.164 150 287C33.0001 256.836 15 286 15 286C15 286 44 244 15 152C-14 60 15 19 15 19Z" stroke="#8C006E" stroke-width="2"/>
</svg>
